<svg enable-background="new 0 0 127.8 89.7" viewBox="0 0 127.8 89.7" xmlns="http://www.w3.org/2000/svg"><g fill="#011e41"><path d="m98.8 21.4c-4.3-8.5-12.9-13.7-23.6-15.5.2 1.2 0 2.4-.4 3.5 8.4 2.2 15.2 7 18.8 14.3.1.3.2.5.4.8h6.1c-.4-1.1-.8-2.1-1.3-3.1"/><path d="m62.1 78.1c-11.3 4.5-22.5 5.8-31.9 4.1.1 1 0 2-.4 2.9 11.1 1.3 24-1 36.5-7z"/><path d="m19.8 78.7c-5.2-2.7-9.3-6.7-11.9-12-8.7-17.2 3.4-39.9 27-51.8 9.5-4.8 19.4-7.1 28.4-7.1-.2-.9-.1-1.8.2-2.7-9.1.5-18.9 3-28.5 7.8-26.3 13.4-40.3 38.6-31.4 56.4 3 5.9 8.1 10.3 14.6 12.9.2-1.3.7-2.5 1.6-3.5"/><path d="m35.7 29.6c.8 0 1.5.6 1.5 1.6v39.6c0 .8-.7 1.5-1.5 1.5h-2.7c-.8 0-1.5-.7-1.5-1.5v-39.6c0-1 .7-1.6 1.5-1.6z"/><path d="m66.5 29.1c12.1 0 21.9 9.8 21.9 21.9s-9.8 21.9-21.9 21.9-21.9-9.7-21.9-21.9 9.8-21.9 21.9-21.9m0 38.1c9 0 16.2-7.2 16.2-16.1s-7.2-16.2-16.2-16.2c-8.9 0-16.1 7.3-16.1 16.2s7.2 16.1 16.1 16.1"/><path d="m125.3 29.6c.8 0 1.5.6 1.5 1.6v39.6c0 .8-.7 1.5-1.5 1.5h-2.4c-.8 0-1.3-.2-1.6-.7l-19.1-28.5c-.3-.4-1.5-.7-1.5 1.2v26.5c0 .8-.7 1.5-1.5 1.5h-2.7c-.8 0-1.5-.7-1.5-1.5v-39.6c0-1 .7-1.6 1.5-1.6h2.7c.5 0 1 .2 1.4.9l19 28.3c.4.6 1.4 1 1.4-1.1v-26.5c0-1 .7-1.6 1.5-1.6z"/></g><path d="m64 9.9c-1.7-2.9-.7-6.5 2.2-8.2 2.9-1.7 6.6-.7 8.2 2.2 1.7 2.9.7 6.5-2.2 8.2-2.8 1.7-6.5.7-8.2-2.2" fill="#e64b38"/><path d="m19 85.8c-1.7-2.9-.7-6.5 2.2-8.2s6.6-.7 8.2 2.2c1.7 2.9.7 6.5-2.2 8.2s-6.5.7-8.2-2.2" fill="#e74b37"/></svg>