<?xml version="1.0" encoding="utf-8"?>
<svg version="1.1" xmlns="http://www.w3.org/2000/svg" viewBox="0 0 360 152" xml:space="preserve">
<style type="text/css">
	.st0{fill:#4A4A49;}
	.st2{fill:#00A1D5;}
</style>
<g>
	<path class="st2" d="M218.6,36.9c1.9,1.2,4.7,1.9,6.1,1.9c2.2,0,5-0.9,5-3.8c0-4.8-11.5-4.4-11.5-11.9c0-5.5,4.1-8.2,9.4-8.2
		c2.3,0,4.2,0.5,6.1,1l-0.4,4.3c-1.1-0.7-4-1.4-5.1-1.4c-2.5,0-4.7,1-4.7,3.2c0,5.4,11.5,3.8,11.5,12.3c0,5.7-4.5,8.3-9.3,8.3
		c-2.5,0-5-0.3-7.3-1.5L218.6,36.9z"/>
	<path class="st2" d="M240.1,15.6h4.6v3.8h0.1c1.9-3.1,4.5-4.5,8.4-4.5c3.1,0,6.1,1.6,7.5,5.1c1.8-3.8,5.8-5.1,8.2-5.1
		c6.8,0,9.2,4.4,9.2,10.1v17h-4.9V26.3c0-3.3-0.8-7.4-4.7-7.4c-5,0-7,4.9-7,9.8v13.4h-4.9V26.3c0-3.3-0.8-7.4-4.7-7.4
		c-5,0-7,4.9-7,9.8v13.4h-4.9V15.6z"/>
	<path class="st2" d="M286.6,17.4c2.4-1.5,5.4-2.5,8.7-2.5c7.6,0,10.7,3.7,10.7,11v11c0,3,0.1,4.4,0.2,5.2h-4.6v-3.4h-0.1
		c-1.1,1.6-3.7,4.1-8.2,4.1c-5.7,0-9.7-2.5-9.7-8.3c0-6.7,7.3-8.7,12.3-8.7c1.9,0,3.3,0,5.2,0.1c0-4.6-1.7-6.9-6.6-6.9
		c-2.8,0-5.7,1-7.7,2.7L286.6,17.4z M301.1,29.4c-1,0-2.1-0.1-3.1-0.1c-2.7,0-9.2,0.4-9.2,5.1c0,2.8,2.7,4.3,4.9,4.3
		c4.8,0,7.4-3,7.4-7V29.4z"/>
	<path class="st2" d="M313.2,15.6h4.6v4.1h0.1c1.3-2.8,4.1-4.7,6.9-4.7c1.5,0,2.2,0.2,3.2,0.4v4.4c-0.9-0.4-1.9-0.5-2.7-0.5
		c-4.4,0-7.2,4.2-7.2,10.8v12.1h-4.9V15.6z"/>
	<path class="st2" d="M348.5,19.5h-7V34c0,3.1,1.9,4.7,4.1,4.7c1.5,0,2.6-0.5,3.3-0.9V42c-1.1,0.3-2.6,0.7-4.2,0.7
		c-5,0-8.2-2.4-8.2-7.7V19.5h-6v-4h6V9.4l4.9-1.6v7.7h7V19.5z"/>
</g>
<g>
	<path class="st2" d="M58.6,104.5H47.3v-4.6h27.8v4.6H63.8v31.7h-5.2V104.5z"/>
	<path class="st2" d="M95.5,135.1c-1.9,0.7-4,1.7-8.4,1.7c-9.4,0-13.7-5.7-13.7-14.4c0-7.9,4.9-13.4,12.4-13.4
		c8.8,0,11.7,6.4,11.7,15H78.6c0,5.3,4.1,8.8,8.7,8.8c3.2,0,7-1.7,8.2-2.7V135.1z M92.3,120.4c0-4.1-2.4-7.4-6.6-7.4
		c-4.8,0-6.8,4-7.1,7.4H92.3z"/>
	<path class="st2" d="M120.4,114.2c-1.9-0.8-3.7-1.1-5.3-1.1c-5.5,0-8.5,4.9-8.5,9.9c0,4.7,2.5,9.9,8.8,9.9c1.7,0,3.7-0.5,5.3-1.5
		l0.4,4.4c-2,0.9-4.4,1.1-6.1,1.1c-8,0-13.5-6.3-13.5-13.9c0-8.1,5.4-13.9,13.5-13.9c2,0,4.5,0.5,5.9,1L120.4,114.2z"/>
	<path class="st2" d="M125.5,97.2h4.9v16.3h0.1c1.8-2.8,4.8-4.4,8.5-4.4c6.9,0,9.9,4.3,9.9,11.4v15.8h-4.9v-13.7
		c0-6.2-1.4-9.2-5.6-9.5c-5.6,0-8.1,4.5-8.1,10.9v12.3h-4.9V97.2z"/>
	<path class="st2" d="M156.2,109.7h4.7v4.2h0.1c1.5-3,5-4.8,8.7-4.8c6.9,0,9.9,4.3,9.9,11.4v15.8h-4.9v-13.7c0-6.2-1.4-9.2-5.6-9.5
		c-5.6,0-8.1,4.5-8.1,10.9v12.3h-4.9V109.7z"/>
	<path class="st2" d="M198.8,109.1c8.1,0,13.5,5.8,13.5,13.9c0,7.6-5.5,13.9-13.5,13.9c-8,0-13.5-6.3-13.5-13.9
		C185.3,114.9,190.7,109.1,198.8,109.1z M198.8,132.9c5.7,0,8.3-5.2,8.3-9.9c0-5-3.1-9.9-8.3-9.9c-5.3,0-8.3,4.9-8.3,9.9
		C190.5,127.7,193,132.9,198.8,132.9z"/>
	<path class="st2" d="M218.4,97.2h4.9v39h-4.9V97.2z"/>
	<path class="st2" d="M242.8,109.1c8.1,0,13.5,5.8,13.5,13.9c0,7.6-5.5,13.9-13.5,13.9c-8,0-13.5-6.3-13.5-13.9
		C229.3,114.9,234.7,109.1,242.8,109.1z M242.8,132.9c5.7,0,8.3-5.2,8.3-9.9c0-5-3.1-9.9-8.3-9.9c-5.3,0-8.3,4.9-8.3,9.9
		C234.5,127.7,237,132.9,242.8,132.9z"/>
	<path class="st2" d="M285.7,135.1c0,8.1-4.2,12.7-13.7,12.7c-2.8,0-5.3-0.4-9.5-1.8l0.5-4.5c3.7,1.7,6,2.4,9.6,2.4
		c5.1,0,8.2-3.5,8.2-9.1v-2.6h-0.1c-2.1,2.8-5.5,4.1-8.9,4.1c-7.6,0-11.3-6.2-11.3-13.1c0-6.8,3.8-14.1,11.9-14.1
		c4.7,0,7.3,1.7,8.7,4.6h0.1v-4h4.5V135.1z M280.9,123.3c0-5.5-2.5-10.2-7.7-10.2c-4.9,0-7.4,5.4-7.4,9.9c0,5,2.8,9.4,7.4,9.4
		S280.9,128.2,280.9,123.3z"/>
	<path class="st2" d="M298.6,103.8h-5.5v-5.5h5.5V103.8z M293.4,109.7h4.9v26.5h-4.9V109.7z"/>
	<path class="st2" d="M326.4,135.1c-1.9,0.7-4,1.7-8.4,1.7c-9.4,0-13.7-5.7-13.7-14.4c0-7.9,4.9-13.4,12.4-13.4
		c8.8,0,11.7,6.4,11.7,15h-18.9c0,5.3,4.1,8.8,8.7,8.8c3.2,0,7-1.7,8.2-2.7V135.1z M323.2,120.4c0-4.1-2.4-7.4-6.6-7.4
		c-4.8,0-6.8,4-7.1,7.4H323.2z"/>
	<path class="st2" d="M332.6,131c1.9,1.2,4.7,1.9,6.1,1.9c2.2,0,5-0.9,5-3.8c0-4.8-11.5-4.4-11.5-11.9c0-5.5,4.1-8.2,9.4-8.2
		c2.3,0,4.2,0.5,6.1,1l-0.4,4.3c-1.1-0.7-4-1.4-5.1-1.4c-2.5,0-4.7,1-4.7,3.2c0,5.4,11.5,3.8,11.5,12.3c0,5.7-4.5,8.3-9.3,8.3
		c-2.5,0-5-0.3-7.3-1.5L332.6,131z"/>
</g>
<g>
	<path class="st0" d="M34.9,85.9c-6.1,1.6-10.7,1.7-14,1.7C11.2,87.5,0,82.6,0,68.9C0,55.2,9.6,50,22.9,50c2.4,0,7.4,0.3,11,1.6
		l-0.8,7.9c-3-1.8-6.6-2.3-8.8-2.3c-7.9,0-14.3,3.3-14.3,11.8c0,7.1,5,11.4,12.1,11.4c1.3,0,2.5-0.2,3.4-0.6v-7.2h-5.7v-6.9h15V85.9
		z"/>
	<path class="st0" d="M58.3,86.9c-0.1-1.5-0.2-2.9-0.2-4.3H58c-2.1,3.4-4.7,4.9-8.6,4.9c-5.4,0-10.1-2.7-10.1-8.5
		c0-8.3,9-9.3,14-9.3c1.5,0,3.2,0.2,4.4,0.4c-0.1-3.7-2.8-4.7-6.2-4.7c-3,0-6,0.6-8.6,2l-0.2-6.3c3.3-1.4,6.8-1.9,10.8-1.9
		c6.9,0,12.9,3,12.9,11.2v10.1c0,2.1,0.1,4.3,0.5,6.4H58.3z M51.9,81.3c3.5,0,5.8-3.2,5.8-6.4c-1.2-0.1-2.5-0.2-4-0.2
		c-3.2,0-5.7,1-5.7,3.6C48,80.2,49.7,81.3,51.9,81.3z"/>
	<path class="st0" d="M71.4,79.4c2.2,0.9,5.4,1.9,8.8,1.9c1.9,0,3.8-0.3,3.8-2.2c0-4.6-13.3-1.4-13.3-11.1c0-6.2,6.1-8.8,11.5-8.8
		c3.2,0,6.5,0.4,9.5,1.6L91,67.2c-2-1.2-4.9-1.8-7.3-1.8c-2,0-4.3,0.4-4.3,1.9c0,4.2,13.9,0.9,13.9,11.2c0,7.2-6.5,9-12.6,9
		c-4.2,0-7.1-0.4-9.8-1.3L71.4,79.4z"/>
	<path class="st0" d="M98,50.6h13.2c12.6,0,21.5,4,21.5,18c0,13.6-9.1,18.3-21.5,18.3H98V50.6z M107.7,79.7h3.7
		c7.2,0,11.3-3.7,11.3-11c0-7.2-4.2-11-11.3-11h-3.7V79.7z"/>
	<path class="st0" d="M145.4,76.1c0.5,3.7,3.4,5.2,8,5.2c2.5,0,5.5-0.6,8.3-2.1v6.6c-3,1.2-6.4,1.7-9.9,1.7
		c-8.9,0-15.8-5.3-15.8-14.2c0-8.9,6.1-14.1,14.5-14.1c10,0,13.7,7.1,13.7,15.2v1.7H145.4z M155.7,70.8c0-3.1-1.5-5.7-5.2-5.7
		c-3.4,0-5,2.5-5.2,5.7H155.7z"/>
	<path class="st0" d="M165.8,59.8h5.5v-6.1l9.2-2.9v8.9h6.6v6.6h-6.6v10c0,3.3,0.8,4.9,3.7,4.9c0.9,0,1.9-0.2,2.9-0.4l0.3,6.1
		c-1.8,0.2-3.5,0.5-5.9,0.5c-8.4,0-10.4-3.7-10.4-10.1v-11h-5.4V59.8z"/>
	<path class="st0" d="M198.7,76.1c0.5,3.7,3.4,5.2,8,5.2c2.5,0,5.5-0.6,8.3-2.1v6.6c-3,1.2-6.4,1.7-9.9,1.7
		c-8.9,0-15.8-5.3-15.8-14.2c0-8.9,6.1-14.1,14.5-14.1c10,0,13.7,7.1,13.7,15.2v1.7H198.7z M209,70.8c0-3.1-1.5-5.7-5.2-5.7
		c-3.4,0-5,2.5-5.2,5.7H209z"/>
	<path class="st0" d="M242.7,67.6c-1.7-1-3.4-1.5-5.7-1.5c-4.1,0-7.2,2.8-7.2,7.5c0,4.3,3.6,7.1,7.7,7.1c2.1,0,4.3-0.5,5.8-1.3
		l0.2,7c-2.3,0.8-5.1,1.2-7.6,1.2c-8.9,0-15.8-5.2-15.8-14.1c0-9,6.8-14.2,15.8-14.2c2.8,0,5.3,0.5,7.4,1.5L242.7,67.6z"/>
	<path class="st0" d="M245.3,59.8h5.5v-6.1l9.2-2.9v8.9h6.6v6.6h-6.6v10c0,3.3,0.8,4.9,3.7,4.9c0.9,0,1.9-0.2,2.9-0.4L267,87
		c-1.8,0.2-3.5,0.5-5.9,0.5c-8.4,0-10.4-3.7-10.4-10.1v-11h-5.4V59.8z"/>
	<path class="st0" d="M280.6,56.4h-9.4v-6.9h9.4V56.4z M271.3,59.8h9.4v27.1h-9.4V59.8z"/>
	<path class="st0" d="M285.2,73.4c0-9,6.8-14.2,15.8-14.2c8.9,0,15.8,5.2,15.8,14.2c0,8.9-6.8,14.1-15.8,14.1
		C292,87.5,285.2,82.3,285.2,73.4z M307,73.4c0-4.1-1.8-7.6-6.1-7.6c-4.3,0-6.1,3.6-6.1,7.6c0,4,1.8,7.6,6.1,7.6
		C305.3,81,307,77.4,307,73.4z"/>
	<path class="st0" d="M320.8,59.8h8.5v5h0.1c1.9-3.9,5.6-5.6,9.9-5.6c7.4,0,10.3,5.2,10.3,10.8v16.9h-9.4V73.8
		c0-5.1-1.8-6.8-4.3-6.8c-3.8,0-5.8,2.7-5.8,8.5v11.4h-9.4V59.8z"/>
</g>
</svg>
