<?xml version="1.0" encoding="UTF-8"?>
<svg id="Layer_1" data-name="Layer 1" xmlns="http://www.w3.org/2000/svg" viewBox="0 0 585.54 127.34">
  <defs>
    <style>
      .cls-1 {
        fill: #474747;
      }

      .cls-2 {
        fill: red;
      }
    </style>
  </defs>
  <path class="cls-2" d="M216.4,49.8c0,1.05.47,1.88,1.42,2.5.95.62,2.83,1.13,5.64,1.52l13.84,1.87c4.18.59,7.67,1.47,10.45,2.65,2.78,1.18,5.02,2.62,6.72,4.32,1.7,1.7,2.91,3.63,3.63,5.79.72,2.16,1.08,4.48,1.08,6.97,0,2.88-.64,5.53-1.91,7.95-1.28,2.42-3.19,4.5-5.74,6.23-2.55,1.73-5.76,3.08-9.62,4.03-3.86.95-8.41,1.42-13.64,1.42s-9.5-.62-13.4-1.87c-3.89-1.24-7.16-2.96-9.81-5.15-2.65-2.19-4.65-4.76-5.99-7.7-1.34-2.94-2.01-6.12-2.01-9.52h16.78c0,.85.28,1.8.84,2.85.55,1.05,1.45,2,2.7,2.85,1.24.85,2.81,1.57,4.71,2.16,1.9.59,4.15.88,6.77.88,8.31,0,12.46-1.53,12.46-4.61,0-.92-.51-1.65-1.52-2.21s-2.89-1.03-5.64-1.43l-13.64-1.86c-3.99-.52-7.39-1.39-10.21-2.6-2.81-1.21-5.07-2.68-6.77-4.42-1.7-1.73-2.95-3.66-3.73-5.79s-1.18-4.4-1.18-6.82c0-2.88.59-5.5,1.77-7.85s2.98-4.37,5.4-6.04c2.42-1.67,5.53-2.98,9.32-3.93,3.79-.95,8.28-1.42,13.44-1.42,4.77,0,8.98.59,12.61,1.77,3.63,1.18,6.66,2.83,9.08,4.96,2.42,2.13,4.25,4.63,5.5,7.51,1.24,2.88,1.87,6.02,1.87,9.42h-16.39c0-2.49-1.13-4.47-3.39-5.94-2.26-1.47-5.35-2.21-9.27-2.21-2.62,0-4.71.12-6.28.35s-2.8.52-3.68.88c-.89.36-1.47.77-1.77,1.23s-.44.88-.44,1.28Z"/>
  <path class="cls-2" d="M273.75,67.37c1.01-3.16,2.22-5.9,3.63-8.21,1.41-2.32,3.09-4.23,5.04-5.74,1.95-1.51,4.25-2.64,6.9-3.38,2.65-.74,5.8-1.14,9.42-1.21l-5.95-17.94h19.65l21.16,64.29h-19.65l-4.13-12.5h-21.46l-4.13,12.5h-19.65l9.17-27.81ZM304.99,68.08l-5.84-17.94-5.95,17.94h11.79Z"/>
  <path class="cls-2" d="M359.21,57.29h28.32v14.11h-28.32v23.78h-18.24v-31.64c0-5.91,1.38-10.35,4.13-13.3,2.75-2.96,6.75-4.43,11.99-4.43v-.4h-16.12v-14.51h49.78v14.51h-31.54v11.89Z"/>
  <path class="cls-2" d="M418.96,56.08h28.32v13.61h-28.32v10.98h31.54v14.51h-49.78v-31.64c0-5.91,1.38-10.35,4.13-13.3,2.75-2.96,6.75-4.43,11.99-4.43v-.4h-16.12v-14.51h49.78v14.51h-31.54v10.68Z"/>
  <path class="cls-2" d="M496.36,95.19h-18.24v-49.48h-19.65v-14.81h57.64v14.81h-35.87v.4c5.24,0,9.24,1.29,11.99,3.88,2.76,2.59,4.13,6.94,4.13,13.05v32.15Z"/>
  <path class="cls-2" d="M561.96,95.19h-18.24v-19.75l-23.58-44.54h21.26l8.16,16.93c.33.67.67,1.6,1.01,2.77.34,1.18.65,2.42.96,3.73.3,1.31.54,2.57.71,3.78.17,1.21.25,2.18.25,2.92h.4c0-.74.1-1.72.3-2.92.2-1.21.45-2.47.75-3.78.3-1.31.64-2.55,1.01-3.73.37-1.18.72-2.1,1.06-2.77l8.26-16.93h21.26l-23.58,44.54v19.75Z"/>
  <g>
    <path class="cls-2" d="M0,46.23v20.44c0,3.43,2.78,6.2,6.2,6.2h47.11c5.32,0,9.63,4.31,9.63,9.63v37.5c0,3.08,2.5,5.58,5.58,5.58h34.05c3.08,0,5.58-2.5,5.58-5.58v-52.93c0-5.23-4.24-9.46-9.46-9.46h-42.04c-5.43,0-9.81-4.42-9.77-9.84.1-11.55.27-30.55.47-41.79.06-3.39-3.97-5.2-6.46-2.9L4.03,37.05c-2.57,2.36-4.03,5.69-4.03,9.18Z"/>
    <rect class="cls-2" x="62.36" width="46.66" height="47.81" rx="8.18" ry="8.18"/>
    <path class="cls-2" d="M9.38,87.5c-5.1,0-9.24,4.14-9.24,9.24v26.54c0,1.4,1.13,2.53,2.53,2.53h41.6c1.4,0,2.53-1.13,2.53-2.53v-26.54c0-5.1-4.14-9.24-9.24-9.24H9.38Z"/>
  </g>
  <g>
    <path class="cls-1" d="M142.59,115.05c0,1.22-.35,2.14-1.04,2.76-.69.63-1.84.94-3.45.94h-2.61v4.52h-1.93v-8.13c0-.61.15-1.07.44-1.39.29-.32.71-.47,1.26-.47v-.07h-1.7v-1.57h5.25c1.24,0,2.18.27,2.82.81s.96,1.41.96,2.6ZM135.5,117.27h2.61c.91,0,1.56-.18,1.96-.55.4-.37.59-.89.59-1.59s-.17-1.16-.52-1.47c-.35-.31-.95-.46-1.81-.46h-2.83v4.07Z"/>
    <path class="cls-1" d="M145.31,114.43h1.86v3.19c.15-.45.33-.88.57-1.28.23-.4.5-.75.79-1.05s.64-.53,1.02-.7.8-.26,1.25-.26h.75v1.84h-1.93c-.6,0-1.09.14-1.49.41-.4.27-.71.67-.96,1.18v5.51h-1.86v-8.84Z"/>
    <path class="cls-1" d="M153.26,118.86c0-.73.11-1.37.33-1.93.22-.56.53-1.03.94-1.42.41-.39.9-.68,1.47-.88.57-.2,1.2-.3,1.9-.3s1.32.1,1.89.3,1.05.5,1.45.88c.4.39.71.86.93,1.42.22.56.33,1.2.33,1.93s-.11,1.38-.33,1.94-.53,1.04-.93,1.43c-.4.39-.88.68-1.45.88-.57.2-1.19.3-1.89.3s-1.33-.1-1.9-.3c-.57-.2-1.06-.5-1.47-.88-.41-.39-.72-.87-.94-1.43s-.33-1.21-.33-1.94ZM155.07,118.82c0,.95.25,1.68.76,2.18.5.5,1.19.76,2.07.76s1.51-.25,2.02-.76c.51-.5.77-1.23.77-2.18,0-.89-.25-1.58-.76-2.09-.5-.5-1.19-.76-2.05-.76s-1.59.26-2.08.78-.73,1.21-.73,2.07Z"/>
    <path class="cls-1" d="M166.26,115.89h-2.15v-1.46h.64c.55,0,.98-.19,1.31-.57.33-.38.49-1.05.49-2v-.82h1.84v1.31c0,.69-.19,1.2-.57,1.53-.38.33-.98.51-1.82.55h5.42v1.46h-3.32v4.47c0,.56.11.95.33,1.18.22.22.61.34,1.17.34h1.75v1.28c-.23.1-.54.17-.92.22s-.81.07-1.27.07c-.38,0-.74-.05-1.08-.14s-.65-.24-.92-.45c-.27-.21-.48-.48-.65-.81-.16-.33-.25-.75-.25-1.25v-4.91Z"/>
    <path class="cls-1" d="M181.51,120.87c-.29.84-.79,1.47-1.5,1.91-.71.43-1.57.65-2.58.65-.63,0-1.21-.1-1.72-.3-.52-.2-.96-.49-1.33-.88-.37-.38-.66-.86-.87-1.43-.21-.57-.31-1.22-.31-1.95s.11-1.36.34-1.92.54-1.04.94-1.43c.4-.39.88-.68,1.42-.88.55-.2,1.15-.3,1.81-.3s1.23.11,1.76.32.98.53,1.34.95c.36.42.64.94.81,1.57s.25,1.35.21,2.18h-6.97c.06.8.32,1.43.78,1.9.46.46,1.06.69,1.79.69.58,0,1.1-.14,1.56-.42.46-.28.79-.69,1.01-1.24l1.51.6ZM180.23,118.2c-.07-.79-.34-1.4-.8-1.82-.46-.43-1.06-.64-1.79-.64s-1.39.22-1.9.66c-.51.44-.8,1.04-.88,1.8h5.36Z"/>
    <path class="cls-1" d="M192.47,120.7c-.32.92-.85,1.61-1.59,2.05-.74.44-1.62.67-2.64.67-.67,0-1.28-.1-1.84-.29s-1.03-.48-1.42-.87c-.39-.38-.69-.86-.91-1.43s-.33-1.23-.33-1.97.11-1.4.33-1.96.52-1.04.91-1.42c.39-.38.86-.67,1.42-.87s1.17-.29,1.84-.29c1.14,0,2.09.27,2.85.82.76.55,1.26,1.36,1.49,2.43l-1.79.02c-.21-.54-.52-.94-.95-1.2-.43-.27-.95-.4-1.57-.4-.88,0-1.55.25-2.02.76-.47.5-.7,1.2-.7,2.09,0,.99.24,1.72.73,2.21s1.15.73,1.99.73c.63,0,1.17-.14,1.61-.42.44-.28.76-.71.94-1.29l1.64.66ZM189.33,122.82h1.17l-1.59,1.29c.64-.01,1.15.11,1.53.37.38.25.57.67.57,1.26,0,.49-.18.88-.53,1.17-.35.29-.83.44-1.44.44-.4,0-.75-.04-1.06-.14-.3-.09-.56-.19-.77-.28-.24-.13-.45-.28-.62-.44l.4-1c.23.21.49.37.77.5s.59.19.9.19.57-.07.77-.21c.19-.14.29-.34.29-.59s-.12-.43-.36-.57c-.24-.13-.62-.2-1.16-.2l-.33-.36,1.44-1.42Z"/>
    <path class="cls-1" d="M200.75,117.75c0-1.22-.74-1.82-2.21-1.82-.57,0-1.11.03-1.61.08-.5.05-.95.14-1.34.25l-.2-1.46c.46-.13,1.02-.24,1.68-.33.66-.08,1.31-.13,1.95-.13,1.14,0,2.03.27,2.65.81.63.54.94,1.33.94,2.38v5.76h-1.6l-.22-2.57c-.13.33-.33.65-.57.98-.25.32-.54.61-.87.87-.33.25-.69.46-1.09.62-.4.16-.81.24-1.25.24-.78,0-1.39-.22-1.83-.66-.44-.44-.67-1.1-.67-1.99,0-.54.08-.99.26-1.37s.4-.69.7-.94c.3-.25.66-.43,1.08-.55s.88-.17,1.38-.17h2.83ZM196.01,112.86c-.04-.29-.02-.58.04-.87.06-.29.16-.54.3-.78.14-.23.33-.42.56-.57.23-.15.5-.22.82-.22s.54.07.72.2.35.27.52.42c.13.12.27.24.42.36.15.12.32.17.53.17.15,0,.26-.03.35-.1s.16-.15.21-.26c.05-.1.09-.22.11-.35.02-.13.03-.25.05-.37h1.09c.04.23.03.49-.02.77-.05.28-.14.54-.28.78-.14.24-.33.43-.57.59-.24.16-.53.24-.88.24s-.63-.07-.82-.22c-.19-.15-.36-.29-.51-.42s-.27-.25-.38-.34c-.11-.09-.25-.14-.42-.14-.27,0-.45.12-.55.35-.1.23-.16.48-.18.75h-1.09ZM200.77,118.79h-2.33c-.75,0-1.28.12-1.58.36-.3.24-.45.61-.45,1.1,0,.98.6,1.48,1.81,1.48.32,0,.6-.03.86-.09.25-.06.48-.14.68-.25.2-.1.38-.22.55-.36.16-.14.32-.28.46-.43v-1.81Z"/>
    <path class="cls-1" d="M205.11,118.86c0-.73.11-1.37.33-1.93.22-.56.53-1.03.94-1.42.41-.39.9-.68,1.47-.88.57-.2,1.2-.3,1.9-.3s1.32.1,1.89.3,1.05.5,1.45.88c.4.39.71.86.93,1.42.22.56.33,1.2.33,1.93s-.11,1.38-.33,1.94-.53,1.04-.93,1.43c-.4.39-.88.68-1.45.88-.57.2-1.19.3-1.89.3s-1.33-.1-1.9-.3c-.57-.2-1.06-.5-1.47-.88-.41-.39-.72-.87-.94-1.43s-.33-1.21-.33-1.94ZM206.91,118.82c0,.95.25,1.68.76,2.18.5.5,1.19.76,2.07.76s1.51-.25,2.02-.76c.51-.5.77-1.23.77-2.18,0-.89-.25-1.58-.76-2.09-.5-.5-1.19-.76-2.05-.76s-1.59.26-2.08.78-.73,1.21-.73,2.07Z"/>
    <path class="cls-1" d="M216.94,120.68h1.81l-.88,3.48h-1.39l.46-3.48Z"/>
    <path class="cls-1" d="M227.21,115.08c0-1.2.56-1.81,1.68-1.81v-.07h-1.68v-1.57h4.43c.98,0,1.84.14,2.57.41s1.33.67,1.81,1.18c.48.51.84,1.13,1.07,1.85s.35,1.54.35,2.43c0,1.88-.48,3.32-1.43,4.29-.95.98-2.41,1.47-4.37,1.47h-4.43v-8.19ZM229.12,121.69h2.54c1.35,0,2.33-.37,2.94-1.1.61-.74.91-1.76.91-3.07,0-.64-.07-1.23-.21-1.75-.14-.52-.36-.98-.67-1.36-.3-.38-.7-.68-1.19-.88-.49-.21-1.09-.31-1.78-.31h-2.54v8.48Z"/>
    <path class="cls-1" d="M247.85,120.87c-.29.84-.79,1.47-1.5,1.91-.71.43-1.57.65-2.58.65-.63,0-1.21-.1-1.72-.3-.52-.2-.96-.49-1.33-.88-.37-.38-.66-.86-.87-1.43-.21-.57-.31-1.22-.31-1.95s.11-1.36.34-1.92.54-1.04.94-1.43c.4-.39.88-.68,1.42-.88.55-.2,1.15-.3,1.81-.3s1.23.11,1.76.32.98.53,1.34.95c.36.42.64.94.81,1.57s.25,1.35.21,2.18h-6.97c.06.8.32,1.43.78,1.9.46.46,1.06.69,1.79.69.58,0,1.1-.14,1.56-.42.46-.28.79-.69,1.01-1.24l1.51.6ZM246.58,118.2c-.07-.79-.34-1.4-.8-1.82-.46-.43-1.06-.64-1.79-.64s-1.39.22-1.9.66c-.51.44-.8,1.04-.88,1.8h5.36Z"/>
    <path class="cls-1" d="M251.65,115.89h-2.15v-1.46h.64c.55,0,.98-.19,1.31-.57.33-.38.49-1.05.49-2v-.82h1.84v1.31c0,.69-.19,1.2-.57,1.53-.38.33-.98.51-1.82.55h5.42v1.46h-3.32v4.47c0,.56.11.95.33,1.18.22.22.61.34,1.17.34h1.75v1.28c-.23.1-.54.17-.92.22s-.81.07-1.27.07c-.38,0-.74-.05-1.08-.14s-.65-.24-.92-.45c-.27-.21-.48-.48-.65-.81-.16-.33-.25-.75-.25-1.25v-4.91Z"/>
    <path class="cls-1" d="M266.89,120.87c-.29.84-.79,1.47-1.5,1.91-.71.43-1.57.65-2.58.65-.63,0-1.21-.1-1.72-.3-.52-.2-.96-.49-1.33-.88-.37-.38-.66-.86-.87-1.43-.21-.57-.31-1.22-.31-1.95s.11-1.36.34-1.92.54-1.04.94-1.43c.4-.39.88-.68,1.42-.88.55-.2,1.15-.3,1.81-.3s1.23.11,1.76.32.98.53,1.34.95c.36.42.64.94.81,1.57s.25,1.35.21,2.18h-6.97c.06.8.32,1.43.78,1.9.46.46,1.06.69,1.79.69.58,0,1.1-.14,1.56-.42.46-.28.79-.69,1.01-1.24l1.51.6ZM265.62,118.2c-.07-.79-.34-1.4-.8-1.82-.46-.43-1.06-.64-1.79-.64s-1.39.22-1.9.66c-.51.44-.8,1.04-.88,1.8h5.36Z"/>
    <path class="cls-1" d="M277.85,120.7c-.32.92-.85,1.61-1.59,2.05-.74.44-1.62.67-2.64.67-.67,0-1.28-.1-1.84-.29s-1.03-.48-1.42-.87c-.39-.38-.69-.86-.91-1.43s-.33-1.23-.33-1.97.11-1.4.33-1.96.52-1.04.91-1.42c.39-.38.86-.67,1.42-.87s1.17-.29,1.84-.29c1.14,0,2.09.27,2.85.82.76.55,1.26,1.36,1.49,2.43l-1.79.02c-.21-.54-.52-.94-.95-1.2-.43-.27-.95-.4-1.57-.4-.88,0-1.55.25-2.02.76-.47.5-.7,1.2-.7,2.09,0,.99.24,1.72.73,2.21s1.15.73,1.99.73c.63,0,1.17-.14,1.61-.42.44-.28.76-.71.94-1.29l1.64.66Z"/>
    <path class="cls-1" d="M288.54,120.7c-.32.92-.85,1.61-1.59,2.05-.74.44-1.62.67-2.64.67-.67,0-1.28-.1-1.84-.29s-1.03-.48-1.42-.87c-.39-.38-.69-.86-.91-1.43s-.33-1.23-.33-1.97.11-1.4.33-1.96.52-1.04.91-1.42c.39-.38.86-.67,1.42-.87s1.17-.29,1.84-.29c1.14,0,2.09.27,2.85.82.76.55,1.26,1.36,1.49,2.43l-1.79.02c-.21-.54-.52-.94-.95-1.2-.43-.27-.95-.4-1.57-.4-.88,0-1.55.25-2.02.76-.47.5-.7,1.2-.7,2.09,0,.99.24,1.72.73,2.21s1.15.73,1.99.73c.63,0,1.17-.14,1.61-.42.44-.28.76-.71.94-1.29l1.64.66ZM285.4,122.82h1.17l-1.59,1.29c.64-.01,1.15.11,1.53.37.38.25.57.67.57,1.26,0,.49-.18.88-.53,1.17-.35.29-.83.44-1.44.44-.4,0-.75-.04-1.06-.14-.3-.09-.56-.19-.77-.28-.24-.13-.45-.28-.62-.44l.4-1c.23.21.49.37.77.5s.59.19.9.19.57-.07.77-.21c.19-.14.29-.34.29-.59s-.12-.43-.36-.57c-.24-.13-.62-.2-1.16-.2l-.33-.36,1.44-1.42Z"/>
    <path class="cls-1" d="M296.82,117.75c0-1.22-.74-1.82-2.21-1.82-.57,0-1.11.03-1.61.08-.5.05-.95.14-1.34.25l-.2-1.46c.46-.13,1.02-.24,1.68-.33.66-.08,1.31-.13,1.95-.13,1.14,0,2.03.27,2.65.81.63.54.94,1.33.94,2.38v5.76h-1.6l-.22-2.57c-.13.33-.33.65-.57.98-.25.32-.54.61-.87.87-.33.25-.69.46-1.09.62-.4.16-.81.24-1.25.24-.78,0-1.39-.22-1.83-.66-.44-.44-.67-1.1-.67-1.99,0-.54.08-.99.26-1.37s.4-.69.7-.94c.3-.25.66-.43,1.08-.55s.88-.17,1.38-.17h2.83ZM292.08,112.86c-.04-.29-.02-.58.04-.87.06-.29.16-.54.3-.78.14-.23.33-.42.56-.57.23-.15.5-.22.82-.22s.54.07.72.2.35.27.52.42c.13.12.27.24.42.36.15.12.32.17.53.17.15,0,.26-.03.35-.1s.16-.15.21-.26c.05-.1.09-.22.11-.35.02-.13.03-.25.05-.37h1.09c.04.23.03.49-.02.77-.05.28-.14.54-.28.78-.14.24-.33.43-.57.59-.24.16-.53.24-.88.24s-.63-.07-.82-.22c-.19-.15-.36-.29-.51-.42s-.27-.25-.38-.34c-.11-.09-.25-.14-.42-.14-.27,0-.45.12-.55.35-.1.23-.16.48-.18.75h-1.09ZM296.84,118.79h-2.33c-.75,0-1.28.12-1.58.36-.3.24-.45.61-.45,1.1,0,.98.6,1.48,1.81,1.48.32,0,.6-.03.86-.09.25-.06.48-.14.68-.25.2-.1.38-.22.55-.36.16-.14.32-.28.46-.43v-1.81Z"/>
    <path class="cls-1" d="M301.18,118.86c0-.73.11-1.37.33-1.93.22-.56.53-1.03.94-1.42.41-.39.9-.68,1.47-.88.57-.2,1.2-.3,1.9-.3s1.32.1,1.89.3c.57.2,1.05.5,1.45.88.4.39.71.86.93,1.42.22.56.33,1.2.33,1.93s-.11,1.38-.33,1.94-.53,1.04-.93,1.43c-.4.39-.88.68-1.45.88-.56.2-1.19.3-1.89.3s-1.33-.1-1.9-.3c-.57-.2-1.06-.5-1.47-.88-.41-.39-.72-.87-.94-1.43s-.33-1.21-.33-1.94ZM302.98,118.82c0,.95.25,1.68.76,2.18.5.5,1.2.76,2.07.76s1.51-.25,2.02-.76c.51-.5.77-1.23.77-2.18,0-.89-.25-1.58-.76-2.09-.5-.5-1.19-.76-2.05-.76s-1.59.26-2.08.78-.73,1.21-.73,2.07Z"/>
    <path class="cls-1" d="M326.03,120.87c-.29.84-.79,1.47-1.5,1.91-.71.43-1.57.65-2.58.65-.63,0-1.21-.1-1.72-.3-.52-.2-.96-.49-1.33-.88-.37-.38-.66-.86-.87-1.43-.21-.57-.31-1.22-.31-1.95s.11-1.36.34-1.92c.22-.57.54-1.04.94-1.43.4-.39.88-.68,1.42-.88s1.15-.3,1.81-.3,1.23.11,1.76.32.98.53,1.34.95c.36.42.63.94.81,1.57.18.63.25,1.35.21,2.18h-6.97c.06.8.32,1.43.78,1.9.46.46,1.06.69,1.79.69.58,0,1.1-.14,1.56-.42.46-.28.79-.69,1.01-1.24l1.51.6ZM324.76,118.2c-.07-.79-.34-1.4-.8-1.82s-1.06-.64-1.79-.64-1.39.22-1.9.66-.8,1.04-.88,1.8h5.36Z"/>
    <path class="cls-1" d="M343.41,115.05c0,1.22-.35,2.14-1.04,2.76-.69.63-1.84.94-3.45.94h-2.61v4.52h-1.93v-8.13c0-.61.15-1.07.44-1.39s.71-.47,1.26-.47v-.07h-1.7v-1.57h5.25c1.24,0,2.18.27,2.82.81.64.54.96,1.41.96,2.6ZM336.32,117.27h2.61c.91,0,1.57-.18,1.96-.55.4-.37.59-.89.59-1.59s-.17-1.16-.52-1.47c-.35-.31-.95-.46-1.81-.46h-2.83v4.07Z"/>
    <path class="cls-1" d="M353.33,120.87c-.29.84-.79,1.47-1.5,1.91-.71.43-1.57.65-2.58.65-.63,0-1.21-.1-1.72-.3-.52-.2-.96-.49-1.33-.88-.37-.38-.66-.86-.87-1.43-.21-.57-.31-1.22-.31-1.95s.11-1.36.34-1.92c.22-.57.54-1.04.94-1.43.4-.39.88-.68,1.42-.88s1.15-.3,1.81-.3,1.23.11,1.76.32.98.53,1.34.95c.36.42.63.94.81,1.57.18.63.25,1.35.21,2.18h-6.97c.06.8.32,1.43.78,1.9.46.46,1.06.69,1.79.69.58,0,1.1-.14,1.56-.42.46-.28.79-.69,1.01-1.24l1.51.6ZM352.06,118.2c-.07-.79-.34-1.4-.8-1.82s-1.06-.64-1.79-.64-1.39.22-1.9.66-.8,1.04-.88,1.8h5.36Z"/>
    <path class="cls-1" d="M356.12,114.43h1.86v3.19c.15-.45.33-.88.57-1.28.23-.4.5-.75.79-1.05s.64-.53,1.02-.7.8-.26,1.25-.26h.75v1.84h-1.93c-.6,0-1.09.14-1.49.41-.39.27-.71.67-.96,1.18v5.51h-1.86v-8.84Z"/>
    <path class="cls-1" d="M365.9,113.26c0-.51.08-.95.25-1.32s.4-.67.69-.91.63-.41,1.01-.52.78-.16,1.19-.16.83.03,1.25.08c.42.05.79.13,1.1.23l-.02,1.24h-2.01c-.61,0-1.05.15-1.32.46s-.41.74-.41,1.29v.8h3.83v1.44h-5.25c.55.06.94.21,1.18.46.24.24.36.61.36,1.11v5.82h-1.84v-7.39h-2.12v-1.44h2.1v-1.19Z"/>
    <path class="cls-1" d="M372.94,118.86c0-.73.11-1.37.33-1.93.22-.56.53-1.03.94-1.42.41-.39.9-.68,1.47-.88s1.2-.3,1.9-.3,1.32.1,1.89.3,1.05.5,1.45.88c.4.39.71.86.93,1.42.22.56.33,1.2.33,1.93s-.11,1.38-.33,1.94c-.22.57-.53,1.04-.93,1.43-.4.39-.88.68-1.45.88-.57.2-1.19.3-1.89.3s-1.33-.1-1.9-.3c-.57-.2-1.06-.5-1.47-.88-.41-.39-.72-.87-.94-1.43s-.33-1.21-.33-1.94ZM374.74,118.82c0,.95.25,1.68.76,2.18.5.5,1.19.76,2.07.76s1.51-.25,2.02-.76c.51-.5.77-1.23.77-2.18,0-.89-.25-1.58-.76-2.09-.5-.5-1.19-.76-2.05-.76s-1.59.26-2.08.78-.73,1.21-.73,2.07Z"/>
    <path class="cls-1" d="M384.66,114.43h1.86v3.19c.15-.45.33-.88.57-1.28.23-.4.5-.75.79-1.05s.64-.53,1.02-.7.8-.26,1.25-.26h.75v1.84h-1.93c-.6,0-1.09.14-1.49.41-.39.27-.71.67-.96,1.18v5.51h-1.86v-8.84Z"/>
    <path class="cls-1" d="M393.18,114.43h1.84v2.86c.18-.44.4-.84.66-1.19.25-.36.53-.67.83-.94s.61-.47.94-.62.66-.22,1-.22c.64,0,1.15.25,1.52.76.37.5.59,1.22.65,2.16.18-.43.4-.82.66-1.18.25-.36.53-.67.82-.92.29-.25.6-.46.93-.6.33-.15.66-.22,1-.22.7,0,1.25.3,1.63.91.38.61.57,1.46.57,2.57v5.47h-1.86v-4.96c0-.73-.14-1.3-.41-1.71-.27-.41-.68-.62-1.23-.62-.39,0-.77.12-1.13.37-.37.25-.69.59-.97,1.03v.21c0,.07,0,.14.02.21v5.47h-1.86v-4.96c0-.73-.14-1.3-.41-1.71-.27-.41-.68-.62-1.23-.62-.39,0-.77.13-1.14.38-.37.26-.7.61-.99,1.08v5.84h-1.84v-8.84Z"/>
    <path class="cls-1" d="M414.86,117.75c0-1.22-.74-1.82-2.21-1.82-.57,0-1.11.03-1.61.08-.5.05-.95.14-1.34.25l-.2-1.46c.46-.13,1.02-.24,1.68-.33s1.31-.13,1.95-.13c1.14,0,2.03.27,2.65.81.63.54.94,1.33.94,2.38v5.76h-1.6l-.22-2.57c-.13.33-.33.65-.58.98s-.54.61-.87.87c-.33.25-.69.46-1.08.62-.39.16-.81.24-1.25.24-.78,0-1.39-.22-1.83-.66-.44-.44-.67-1.1-.67-1.99,0-.54.08-.99.25-1.37s.4-.69.7-.94c.3-.25.66-.43,1.08-.55.42-.12.88-.17,1.38-.17h2.83ZM414.88,118.79h-2.33c-.75,0-1.28.12-1.58.36s-.45.61-.45,1.1c0,.98.6,1.48,1.81,1.48.32,0,.6-.03.86-.09.26-.06.48-.14.68-.25.2-.1.38-.22.55-.36s.32-.28.46-.43v-1.81Z"/>
    <path class="cls-1" d="M419.79,114.43h1.86v2.86c.19-.44.43-.84.69-1.19.27-.36.56-.67.88-.94s.66-.47,1-.62c.35-.15.7-.22,1.07-.22.75,0,1.33.3,1.74.91.41.61.61,1.46.61,2.57v5.47h-1.84v-4.96c0-.73-.16-1.3-.46-1.71-.31-.41-.76-.62-1.36-.62-.43,0-.84.13-1.25.38-.41.26-.77.61-1.08,1.08v5.84h-1.86v-8.84Z"/>
    <path class="cls-1" d="M438.68,120.7c-.32.92-.84,1.61-1.59,2.05-.74.44-1.62.67-2.64.67-.67,0-1.28-.1-1.84-.29-.56-.19-1.03-.48-1.42-.87-.39-.38-.69-.86-.91-1.43s-.33-1.23-.33-1.97.11-1.4.33-1.96.52-1.04.91-1.42c.39-.38.86-.67,1.42-.87.56-.19,1.17-.29,1.84-.29,1.14,0,2.09.27,2.85.82s1.26,1.36,1.49,2.43l-1.79.02c-.21-.54-.52-.94-.95-1.2s-.95-.4-1.57-.4c-.88,0-1.55.25-2.01.76-.47.5-.7,1.2-.7,2.09,0,.99.24,1.72.73,2.21.49.49,1.15.73,1.99.73.63,0,1.17-.14,1.61-.42.44-.28.76-.71.94-1.29l1.64.66Z"/>
    <path class="cls-1" d="M448.95,120.87c-.29.84-.79,1.47-1.5,1.91-.71.43-1.57.65-2.58.65-.63,0-1.21-.1-1.72-.3-.52-.2-.96-.49-1.33-.88-.37-.38-.66-.86-.87-1.43-.21-.57-.31-1.22-.31-1.95s.11-1.36.34-1.92c.22-.57.54-1.04.94-1.43.4-.39.88-.68,1.42-.88s1.15-.3,1.81-.3,1.23.11,1.76.32.98.53,1.34.95c.36.42.63.94.81,1.57.18.63.25,1.35.21,2.18h-6.97c.06.8.32,1.43.78,1.9.46.46,1.06.69,1.79.69.58,0,1.1-.14,1.56-.42.46-.28.79-.69,1.01-1.24l1.51.6ZM447.67,118.2c-.07-.79-.34-1.4-.8-1.82s-1.06-.64-1.79-.64-1.39.22-1.9.66-.8,1.04-.88,1.8h5.36Z"/>
    <path class="cls-1" d="M466.33,115.05c0,1.22-.35,2.14-1.04,2.76-.69.63-1.84.94-3.45.94h-2.61v4.52h-1.93v-8.13c0-.61.15-1.07.44-1.39s.71-.47,1.26-.47v-.07h-1.7v-1.57h5.25c1.24,0,2.18.27,2.82.81.64.54.96,1.41.96,2.6ZM459.23,117.27h2.61c.91,0,1.57-.18,1.96-.55.4-.37.59-.89.59-1.59s-.17-1.16-.52-1.47c-.35-.31-.95-.46-1.81-.46h-2.83v4.07Z"/>
    <path class="cls-1" d="M469.05,114.43h1.86v3.19c.15-.45.33-.88.57-1.28.23-.4.5-.75.79-1.05s.64-.53,1.02-.7.8-.26,1.25-.26h.75v1.84h-1.93c-.6,0-1.09.14-1.49.41-.39.27-.71.67-.96,1.18v5.51h-1.86v-8.84Z"/>
    <path class="cls-1" d="M477,118.86c0-.73.11-1.37.33-1.93.22-.56.53-1.03.94-1.42.41-.39.9-.68,1.47-.88s1.2-.3,1.9-.3,1.32.1,1.89.3,1.05.5,1.45.88c.4.39.71.86.93,1.42.22.56.33,1.2.33,1.93s-.11,1.38-.33,1.94c-.22.57-.53,1.04-.93,1.43-.4.39-.88.68-1.45.88-.57.2-1.19.3-1.89.3s-1.33-.1-1.9-.3c-.57-.2-1.06-.5-1.47-.88-.41-.39-.72-.87-.94-1.43s-.33-1.21-.33-1.94ZM478.8,118.82c0,.95.25,1.68.76,2.18.5.5,1.19.76,2.07.76s1.51-.25,2.02-.76c.51-.5.77-1.23.77-2.18,0-.89-.25-1.58-.76-2.09-.5-.5-1.19-.76-2.05-.76s-1.59.26-2.08.78-.73,1.21-.73,2.07Z"/>
    <path class="cls-1" d="M489.98,113.26c0-.51.1-.95.29-1.32.19-.37.46-.67.78-.91.33-.24.7-.41,1.13-.52s.86-.16,1.31-.16.92.03,1.38.08.84.13,1.16.23v1.24h-2.37c-.68,0-1.17.15-1.48.46s-.46.74-.46,1.29v.8h7.17v8.83h-1.86v-7.39h-6.73c.55.06.94.21,1.18.46.24.24.36.61.36,1.11v5.82h-1.84v-7.39h-2.12v-1.44h2.1v-1.19Z"/>
    <path class="cls-1" d="M503.17,116.85c0,.28.15.52.44.71.29.19.71.33,1.26.4l2.02.27c1.12.16,1.9.45,2.35.87.45.42.67.97.67,1.65,0,.79-.36,1.43-1.08,1.92-.72.49-1.83.73-3.33.73-.73,0-1.37-.08-1.92-.25-.55-.16-1.01-.39-1.39-.67-.37-.29-.65-.62-.85-1.01-.2-.39-.29-.81-.29-1.26h1.62c0,.49.22.9.67,1.23.45.33,1.17.5,2.15.5.5,0,.92-.03,1.25-.09.33-.06.6-.15.8-.25.2-.11.34-.24.43-.38.08-.15.13-.3.13-.46,0-.27-.12-.49-.37-.67-.25-.18-.71-.31-1.38-.41l-1.9-.27c-1.12-.17-1.92-.47-2.39-.91-.47-.44-.71-.99-.71-1.66,0-.75.33-1.36.99-1.82.66-.46,1.67-.69,3.02-.69.71,0,1.33.08,1.86.24.53.16.98.38,1.33.66s.62.61.8.98c.18.38.27.78.27,1.22h-1.62c0-.46-.21-.85-.63-1.18-.42-.32-1.1-.48-2.03-.48-.41,0-.76.03-1.04.09-.28.06-.5.14-.67.25-.17.1-.29.22-.37.35-.07.13-.11.26-.11.41Z"/>
    <path class="cls-1" d="M513.83,116.85c0,.28.15.52.44.71.29.19.71.33,1.26.4l2.02.27c1.12.16,1.9.45,2.35.87.45.42.67.97.67,1.65,0,.79-.36,1.43-1.08,1.92-.72.49-1.83.73-3.33.73-.73,0-1.37-.08-1.92-.25-.55-.16-1.01-.39-1.39-.67-.37-.29-.65-.62-.85-1.01-.2-.39-.29-.81-.29-1.26h1.62c0,.49.22.9.67,1.23.45.33,1.17.5,2.15.5.5,0,.92-.03,1.25-.09.33-.06.6-.15.8-.25.2-.11.34-.24.43-.38.08-.15.13-.3.13-.46,0-.27-.12-.49-.37-.67-.25-.18-.71-.31-1.38-.41l-1.9-.27c-1.12-.17-1.92-.47-2.39-.91-.47-.44-.71-.99-.71-1.66,0-.75.33-1.36.99-1.82.66-.46,1.67-.69,3.02-.69.71,0,1.33.08,1.86.24.53.16.98.38,1.33.66s.62.61.8.98c.18.38.27.78.27,1.22h-1.62c0-.46-.21-.85-.63-1.18-.42-.32-1.1-.48-2.03-.48-.41,0-.76.03-1.04.09-.28.06-.5.14-.67.25-.17.1-.29.22-.37.35-.07.13-.11.26-.11.41Z"/>
    <path class="cls-1" d="M522.73,111.29c0-.43.13-.77.39-1.04.26-.27.6-.4,1.03-.4s.77.13,1.02.4c.26.27.38.61.38,1.04s-.13.79-.38,1.07c-.25.27-.6.41-1.02.41s-.77-.14-1.03-.41-.39-.63-.39-1.07ZM523.23,114.43h1.84v8.84h-1.84v-8.84Z"/>
    <path class="cls-1" d="M527.69,118.86c0-.73.11-1.37.33-1.93.22-.56.53-1.03.94-1.42.41-.39.9-.68,1.47-.88s1.2-.3,1.9-.3,1.32.1,1.89.3,1.05.5,1.45.88c.4.39.71.86.93,1.42.22.56.33,1.2.33,1.93s-.11,1.38-.33,1.94c-.22.57-.53,1.04-.93,1.43-.4.39-.88.68-1.45.88-.57.2-1.19.3-1.89.3s-1.33-.1-1.9-.3c-.57-.2-1.06-.5-1.47-.88-.41-.39-.72-.87-.94-1.43s-.33-1.21-.33-1.94ZM529.5,118.82c0,.95.25,1.68.76,2.18.5.5,1.19.76,2.07.76s1.51-.25,2.02-.76c.51-.5.77-1.23.77-2.18,0-.89-.25-1.58-.76-2.09-.5-.5-1.19-.76-2.05-.76s-1.59.26-2.08.78-.73,1.21-.73,2.07Z"/>
    <path class="cls-1" d="M539.42,114.43h1.86v2.86c.19-.44.43-.84.69-1.19.27-.36.56-.67.88-.94s.66-.47,1-.62c.35-.15.7-.22,1.07-.22.75,0,1.33.3,1.74.91.41.61.61,1.46.61,2.57v5.47h-1.84v-4.96c0-.73-.16-1.3-.46-1.71-.31-.41-.76-.62-1.36-.62-.43,0-.84.13-1.25.38-.41.26-.77.61-1.08,1.08v5.84h-1.86v-8.84Z"/>
    <path class="cls-1" d="M555.91,117.75c0-1.22-.74-1.82-2.21-1.82-.57,0-1.11.03-1.61.08-.5.05-.95.14-1.34.25l-.2-1.46c.46-.13,1.02-.24,1.68-.33s1.31-.13,1.95-.13c1.14,0,2.03.27,2.65.81.63.54.94,1.33.94,2.38v5.76h-1.6l-.22-2.57c-.13.33-.33.65-.58.98s-.54.61-.87.87c-.33.25-.69.46-1.08.62-.39.16-.81.24-1.25.24-.78,0-1.39-.22-1.83-.66-.44-.44-.67-1.1-.67-1.99,0-.54.08-.99.25-1.37s.4-.69.7-.94c.3-.25.66-.43,1.08-.55.42-.12.88-.17,1.38-.17h2.83ZM555.92,118.79h-2.33c-.75,0-1.28.12-1.58.36s-.45.61-.45,1.1c0,.98.6,1.48,1.81,1.48.32,0,.6-.03.86-.09.26-.06.48-.14.68-.25.2-.1.38-.22.55-.36s.32-.28.46-.43v-1.81Z"/>
    <path class="cls-1" d="M560.83,110.51h1.84v12.77h-1.84v-12.77Z"/>
    <path class="cls-1" d="M565.57,122.07c0-.41.12-.74.37-.98.24-.24.57-.36.98-.36s.76.12,1.01.36.37.57.37.98-.12.76-.37,1.01-.59.37-1.01.37-.74-.12-.98-.37c-.24-.25-.37-.59-.37-1.01Z"/>
  </g>
  <path class="cls-1" d="M183.14,70.69h6.71v14.47h-6.71v9.88h-17.07v-9.88h-32.91v-12.26c0-2.36.53-4.7,1.56-6.83l16.11-33.45c1.17-2.42,3.62-3.96,6.31-3.96h14.02l-18.9,42.03h13.82v-5.92c0-3.87,3.14-7,7-7h10.07v12.92Z"/>
</svg>